<?xml version="1.0" encoding="UTF-8"?>
<!DOCTYPE svg PUBLIC "-//W3C//DTD SVG 1.1//EN" "http://www.w3.org/Graphics/SVG/1.1/DTD/svg11.dtd">
<!-- Creator: CorelDRAW 2019 (64-Bit) -->
<svg xmlns="http://www.w3.org/2000/svg" xml:space="preserve" width="671px" height="671px" version="1.1" style="shape-rendering:geometricPrecision; text-rendering:geometricPrecision; image-rendering:optimizeQuality; fill-rule:evenodd; clip-rule:evenodd"
viewBox="0 0 104.03 104.03"
 xmlns:xlink="http://www.w3.org/1999/xlink"
 xmlns:xodm="http://www.corel.com/coreldraw/odm/2003">
 <defs>
  <style type="text/css">
   <![CDATA[
    .fil0 {fill:#36C0EE}
    .fil1 {fill:#FEFEFE}
   ]]>
  </style>
 </defs>
 <g id="Capa_x0020_1">
  <metadata id="CorelCorpID_0Corel-Layer"/>
  <g id="_1667039210352">
   <path class="fil0" d="M70.65 45.08c-5.35,-4.94 -5.89,-3.57 -2.06,-7.91 0.79,-0.9 1.61,-1.63 2.38,-2.52 0.59,-0.67 1.47,-2.15 2.93,-1.73 1.12,0.33 5.99,5.56 7.69,7.05l10.14 9.47c3.04,2.69 2.41,2.98 -0.25,5.34 -0.9,0.8 -1.62,1.59 -2.51,2.38l-3.82 3.54c-0.46,0.41 -0.75,0.82 -1.21,1.24l-5.11 4.68c-6.4,6.36 -5.35,4.98 -7.99,2.57 -0.73,-0.67 -4.48,-4.62 -4.62,-5.23 -0.33,-1.45 1.39,-2.31 1.99,-2.87l10.21 -9.13 -7.77 -6.88zm-45.04 7.15c1.02,0.59 1.73,1.45 2.7,2.2 0.88,0.69 1.7,1.52 2.58,2.31l3.95 3.41c5.16,4.36 3.15,3.53 -1.77,9.15 -0.57,0.66 -1.45,2.13 -2.79,1.83 -1.17,-0.26 -12.11,-11.16 -15.3,-14.11 -5.15,-4.77 -6.13,-4.54 -2.6,-7.64 0.89,-0.78 1.63,-1.61 2.52,-2.39l15.2 -14.04c1.33,-0.42 2.41,1.08 3.03,1.77l2.38 2.52c3.54,3.81 2.73,3.36 0.38,5.68l-5.21 4.59c-1.11,1.01 -4.57,3.64 -5.07,4.72zm30.85 -33.47c0.84,-0.32 3.61,0.72 4.64,1.01 0.93,0.26 4.02,1.04 4.63,1.39 1.36,0.79 0.3,3.08 -0.13,4.54l-12.08 41.62c-0.88,3.12 -1.78,6.09 -2.68,9.2 -0.47,1.63 -0.89,3.12 -1.35,4.67 -0.41,1.36 -0.68,3.66 -1.81,4.07 -0.82,0.3 -8.71,-1.95 -9.46,-2.49 -1.25,-0.91 -0.19,-3.1 0.23,-4.51 0.45,-1.52 0.89,-3.02 1.32,-4.53l10.76 -37.09c0.91,-3.1 1.77,-6.13 2.68,-9.2 0.46,-1.57 0.9,-3.09 1.36,-4.67 0.59,-2.05 0.65,-3.54 1.89,-4.01zm-24.23 -18.55c-14.78,1.34 -25.38,11 -29.72,22.15 -3.07,7.88 -2.43,14.69 -2.43,23.56 0,5.57 -0.24,21.49 0.12,25.88 1.22,14.87 11.13,25.26 22.1,29.72 7.48,3.04 15,2.43 23.57,2.43 5.64,0 21.4,0.25 25.89,-0.12 14.77,-1.21 25.42,-11.13 29.74,-22.08 3.06,-7.74 2.45,-14.75 2.45,-23.58 0,-5.57 0.25,-21.55 -0.12,-25.93 -1.23,-14.85 -11.1,-25.27 -22.08,-29.73 -7.48,-3.03 -15.01,-2.43 -23.63,-2.43 -5.32,0 -21.85,-0.24 -25.89,0.13z"/>
   <path class="fil1" d="M56.46 18.76c-1.24,0.47 -1.3,1.96 -1.89,4.01 -0.46,1.58 -0.9,3.1 -1.36,4.67 -0.91,3.07 -1.77,6.1 -2.68,9.2l-10.76 37.09c-0.43,1.51 -0.87,3.01 -1.32,4.53 -0.42,1.41 -1.48,3.6 -0.23,4.51 0.75,0.54 8.64,2.79 9.46,2.49 1.13,-0.41 1.4,-2.71 1.81,-4.07 0.46,-1.55 0.88,-3.04 1.35,-4.67 0.9,-3.11 1.8,-6.08 2.68,-9.2l12.08 -41.62c0.43,-1.46 1.49,-3.75 0.13,-4.54 -0.61,-0.35 -3.7,-1.13 -4.63,-1.39 -1.03,-0.29 -3.8,-1.33 -4.64,-1.01z"/>
   <path class="fil1" d="M78.42 51.96l-10.21 9.13c-0.6,0.56 -2.32,1.42 -1.99,2.87 0.14,0.61 3.89,4.56 4.62,5.23 2.64,2.41 1.59,3.79 7.99,-2.57l5.11 -4.68c0.46,-0.42 0.75,-0.83 1.21,-1.24l3.82 -3.54c0.89,-0.79 1.61,-1.58 2.51,-2.38 2.66,-2.36 3.29,-2.65 0.25,-5.34l-10.14 -9.47c-1.7,-1.49 -6.57,-6.72 -7.69,-7.05 -1.46,-0.42 -2.34,1.06 -2.93,1.73 -0.77,0.89 -1.59,1.62 -2.38,2.52 -3.83,4.34 -3.29,2.97 2.06,7.91l7.77 6.88z"/>
   <path class="fil1" d="M25.61 52.23c0.5,-1.08 3.96,-3.71 5.07,-4.72l5.21 -4.59c2.35,-2.32 3.16,-1.87 -0.38,-5.68l-2.38 -2.52c-0.62,-0.69 -1.7,-2.19 -3.03,-1.77l-15.2 14.04c-0.89,0.78 -1.63,1.61 -2.52,2.39 -3.53,3.1 -2.55,2.87 2.6,7.64 3.19,2.95 14.13,13.85 15.3,14.11 1.34,0.3 2.22,-1.17 2.79,-1.83 4.92,-5.62 6.93,-4.79 1.77,-9.15l-3.95 -3.41c-0.88,-0.79 -1.7,-1.62 -2.58,-2.31 -0.97,-0.75 -1.68,-1.61 -2.7,-2.2z"/>
  </g>
 </g>
</svg>
