<?xml version="1.0" encoding="UTF-8"?>
<!DOCTYPE svg PUBLIC "-//W3C//DTD SVG 1.1//EN" "http://www.w3.org/Graphics/SVG/1.1/DTD/svg11.dtd">
<!-- Creator: CorelDRAW 2019 (64-Bit) -->
<svg xmlns="http://www.w3.org/2000/svg" xml:space="preserve" width="1149px" height="979px" version="1.1" style="shape-rendering:geometricPrecision; text-rendering:geometricPrecision; image-rendering:optimizeQuality; fill-rule:evenodd; clip-rule:evenodd"
viewBox="0 0 314.94 268.28"
 xmlns:xlink="http://www.w3.org/1999/xlink"
 xmlns:xodm="http://www.corel.com/coreldraw/odm/2003">
 <defs>
  <style type="text/css">
   <![CDATA[
    .fil2 {fill:black}
    .fil3 {fill:#020202}
    .fil0 {fill:#36C0EE}
    .fil11 {fill:#545454}
    .fil8 {fill:#5B5B5B}
    .fil12 {fill:#636363}
    .fil4 {fill:#6C6C6C}
    .fil5 {fill:#747474}
    .fil6 {fill:#7B7B7B}
    .fil7 {fill:#878787}
    .fil13 {fill:#939393}
    .fil9 {fill:#9B9B9B}
    .fil10 {fill:#A4A4A4}
    .fil1 {fill:#FEFEFE}
   ]]>
  </style>
 </defs>
 <g id="Capa_x0020_1">
  <metadata id="CorelCorpID_0Corel-Layer"/>
  <g id="_1740163539472">
   <path class="fil0" d="M186.51 79.68c-9.46,-8.73 -10.42,-6.3 -3.65,-13.98 1.4,-1.58 2.84,-2.87 4.22,-4.44 1.04,-1.19 2.58,-3.82 5.18,-3.06 1.96,0.57 10.58,9.81 13.59,12.46l17.92 16.73c5.38,4.75 4.25,5.27 -0.44,9.44 -1.6,1.42 -2.86,2.82 -4.45,4.22l-6.75 6.24c-0.81,0.73 -1.32,1.45 -2.13,2.2l-9.04 8.28c-11.31,11.24 -9.46,8.79 -14.12,4.54 -1.29,-1.18 -7.92,-8.16 -8.16,-9.24 -0.59,-2.57 2.45,-4.1 3.51,-5.07l18.05 -16.15 -13.73 -12.17zm-79.62 12.65c1.81,1.04 3.05,2.56 4.76,3.89 1.57,1.22 3.02,2.68 4.57,4.09l6.98 6.02c9.12,7.71 5.57,6.23 -3.12,16.18 -1.01,1.16 -2.57,3.75 -4.94,3.23 -2.06,-0.46 -21.41,-19.72 -27.05,-24.95 -9.09,-8.43 -10.82,-8.02 -4.58,-13.51 1.57,-1.37 2.88,-2.84 4.44,-4.21l26.88 -24.82c2.35,-0.74 4.26,1.9 5.35,3.13l4.22 4.45c6.25,6.73 4.81,5.94 0.65,10.03l-9.19 8.12c-1.98,1.79 -8.09,6.44 -8.97,8.35zm54.54 -59.17c1.47,-0.57 6.37,1.27 8.19,1.78 1.66,0.47 7.11,1.85 8.19,2.47 2.41,1.39 0.54,5.43 -0.23,8.02l-21.35 73.57c-1.57,5.51 -3.16,10.77 -4.74,16.27 -0.83,2.87 -1.58,5.52 -2.39,8.26 -0.72,2.39 -1.21,6.45 -3.19,7.18 -1.46,0.53 -15.41,-3.45 -16.73,-4.4 -2.22,-1.6 -0.33,-5.48 0.41,-7.97 0.8,-2.69 1.57,-5.35 2.33,-8l19.02 -65.57c1.61,-5.47 3.13,-10.84 4.73,-16.27 0.83,-2.77 1.59,-5.46 2.4,-8.26 1.06,-3.62 1.17,-6.24 3.36,-7.08zm-42.84 -32.8c-26.13,2.39 -44.86,19.45 -52.54,39.16 -5.42,13.93 -4.29,25.98 -4.29,41.65 0,9.86 -0.43,38 0.2,45.75 2.17,26.29 19.68,44.65 39.07,52.54 13.24,5.38 26.52,4.3 41.67,4.3 9.98,0 37.84,0.43 45.77,-0.22 26.11,-2.13 44.93,-19.67 52.58,-39.03 5.41,-13.69 4.32,-26.07 4.32,-41.69 0,-9.84 0.44,-38.09 -0.21,-45.82 -2.18,-26.26 -19.62,-44.69 -39.04,-52.56 -13.22,-5.36 -26.53,-4.31 -41.77,-4.31 -9.39,0 -38.63,-0.42 -45.76,0.23z"/>
   <path class="fil1" d="M161.43 33.16c-2.19,0.84 -2.3,3.46 -3.36,7.08 -0.81,2.8 -1.57,5.49 -2.4,8.26 -1.6,5.43 -3.12,10.8 -4.73,16.27l-19.02 65.57c-0.76,2.65 -1.53,5.31 -2.33,8 -0.74,2.49 -2.63,6.37 -0.41,7.97 1.32,0.95 15.27,4.93 16.73,4.4 1.98,-0.73 2.47,-4.79 3.19,-7.18 0.81,-2.74 1.56,-5.39 2.39,-8.26 1.58,-5.5 3.17,-10.76 4.74,-16.27l21.35 -73.57c0.77,-2.59 2.64,-6.63 0.23,-8.02 -1.08,-0.62 -6.53,-2 -8.19,-2.47 -1.82,-0.51 -6.72,-2.35 -8.19,-1.78z"/>
   <path class="fil1" d="M200.24 91.85l-18.05 16.15c-1.06,0.97 -4.1,2.5 -3.51,5.07 0.24,1.08 6.87,8.06 8.16,9.24 4.66,4.25 2.81,6.7 14.12,-4.54l9.04 -8.28c0.81,-0.75 1.32,-1.47 2.13,-2.2l6.75 -6.24c1.59,-1.4 2.85,-2.8 4.45,-4.22 4.69,-4.17 5.82,-4.69 0.44,-9.44l-17.92 -16.73c-3.01,-2.65 -11.63,-11.89 -13.59,-12.46 -2.6,-0.76 -4.14,1.87 -5.18,3.06 -1.38,1.57 -2.82,2.86 -4.22,4.44 -6.77,7.68 -5.81,5.25 3.65,13.98l13.73 12.17z"/>
   <path class="fil1" d="M106.89 92.33c0.88,-1.91 6.99,-6.56 8.97,-8.35l9.19 -8.12c4.16,-4.09 5.6,-3.3 -0.65,-10.03l-4.22 -4.45c-1.09,-1.23 -3,-3.87 -5.35,-3.13l-26.88 24.82c-1.56,1.37 -2.87,2.84 -4.44,4.21 -6.24,5.49 -4.51,5.08 4.58,13.51 5.64,5.23 24.99,24.49 27.05,24.95 2.37,0.52 3.93,-2.07 4.94,-3.23 8.69,-9.95 12.24,-8.47 3.12,-16.18l-6.98 -6.02c-1.55,-1.41 -3,-2.87 -4.57,-4.09 -1.71,-1.33 -2.95,-2.85 -4.76,-3.89z"/>
   <path class="fil2" d="M137.82 236.35l3.78 0 0.14 -18.17 12.23 -0.09c0.19,0 0.66,0.02 0.83,0.05l0.73 0.24c0.87,0.32 1.32,5.92 -2.54,6.58 -2.15,0.37 -7.15,0.05 -9.64,0.09l0.01 4c2.9,0.03 3.01,-0.03 4.59,1.45 1.19,1.12 2.12,1.94 3.33,2.94 4.08,3.34 2.35,3.02 9.41,2.89 -0.73,-1.02 -6.35,-5.55 -7.87,-6.98 0.18,-0.15 0.05,-0.11 0.57,-0.31l2.38 -0.72c1.01,-0.47 1.84,-1.15 2.46,-1.82 1.6,-1.72 1.78,-3.92 1.73,-6.86 -0.13,-6.72 -5.22,-5.55 -11.14,-5.55 -12.24,0 -11.13,-0.93 -11.12,5.57 0,3.88 -0.49,13.47 0.12,16.69z"/>
   <path class="fil2" d="M221.09 218.38c0.69,-0.72 6.85,-0.46 8.28,-0.3l0.22 7.87c-0.15,1.29 -0.19,0.69 -0.33,0.94l-14.04 -0.07c-0.05,-2.45 0.09,-4.22 1.22,-5.97 0.72,-1.11 2.61,-2.5 4.65,-2.47zm-5.89 12.76c0.4,-0.36 -0.21,-0.22 0.89,-0.39l13.4 0.11 0.02 5.44 3.98 -0.18c-0.45,-4.74 -0.06,-11.5 -0.06,-16.46 0,-6.36 1.11,-5.69 -11.07,-5.57 -5.19,0.05 -8.77,2.78 -10.26,6.41 -1.04,2.56 -1.45,12.88 -0.76,15.84l3.76 0 0.1 -5.2z"/>
   <path class="fil2" d="M4.12 226.7c-0.1,-9.43 5.84,-8.74 14.2,-8.57l-0.02 8.72 -14.18 -0.15zm-3.78 -3.35c-0.16,4.23 -0.12,8.56 -0.12,12.83l3.67 0 0.04 -5.38c1.9,-0.46 13.07,-0.56 14.45,0.13l0.07 5.25 3.63 -0.01 0.07 -20.44 -0.14 -1c-1.84,-1 -4.49,-0.64 -7.18,-0.64 -2.49,0 -5.04,-0.19 -7.31,0.54 -3.35,1.08 -7.2,4.58 -7.18,8.72z"/>
   <path class="fil2" d="M42.71 232.13l-0.79 0.35 -15.12 -0.04 -0.13 3.76 16.32 -0.08c3.78,-0.16 6.5,-4.24 5.19,-8.5 -2.3,-7.41 -13.76,-2.95 -16.86,-4.79 -1.54,-0.92 -1.44,-4.07 0.65,-4.6 1.8,-0.47 11.72,-0.1 14.38,-0.12l0.08 -4.01c-4.25,-0.03 -10.51,-0.36 -14.43,0.03 -3.82,0.39 -6.66,3.95 -5.54,8.44 1.89,7.57 13.95,3.29 16.91,5.03 1.5,0.88 1.67,4 -0.66,4.53z"/>
   <path class="fil2" d="M76.81 215.24l-0.1 21.05 3.97 -0.15 -0.04 -15.3 12.75 13.19c0.57,0.61 4.09,4.94 5.21,1.26l0.12 -21.03 -3.69 0 -0.04 15.58 -0.7 -0.51c-1.4,-1.5 -2.68,-2.84 -4.06,-4.4 -1.41,-1.58 -2.94,-2.89 -4.36,-4.47l-6.4 -6.45c-1.4,-0.7 -2.37,0.13 -2.66,1.23z"/>
   <path class="fil2" d="M164.01 217.09l0 12.54c0,4.56 1.92,6.7 6.47,6.72 4.52,0.03 9.08,0.02 13.6,-0.01 0.27,-1.53 0.2,-2.48 0.05,-4.03 -3.43,-0.02 -13.28,0.39 -15.75,-0.28 -0.6,-1.84 -0.31,-11.36 -0.31,-13.92l16.02 0 0.02 -4.02 -17.35 -0.01c-2.32,0.02 -2.75,0.68 -2.75,3.01z"/>
   <path class="fil2" d="M123.33 236.33l0.11 -4c-17.92,-0.48 -16.18,2.38 -16.18,-6.97 0,-1.78 -0.63,-5.8 0.6,-6.77 1.22,-1.22 12.88,-0.43 15.48,-0.49l0.09 -3.99c-3.97,-0.1 -12.05,-0.42 -15.55,0.05 -5.09,0.67 -4.64,5.98 -4.64,10.91 0,12.36 0.15,11.82 20.09,11.26z"/>
   <path class="fil2" d="M299.4 236.13l15.25 0.07 0 -3.76 -14.16 0c-1.34,-0.11 -0.42,-0.04 -0.78,-0.33 -1.25,-0.23 -1.04,-1.24 -1.02,-2.76 0.01,-1.23 0.01,-2.47 0.01,-3.71 0,-2.43 -0.06,-4.94 0.02,-7.36 1.16,-0.68 14.71,-0.29 15.95,-0.29l0 -3.75 -18.67 0.09c-1.87,0.46 -1.37,3.03 -1.36,5.33 0,2.37 0,4.75 0,7.12 0,4.7 0.02,9.07 4.76,9.35z"/>
   <path class="fil2" d="M292.14 214.42c-0.92,-0.48 -3.04,-0.22 -4.29,-0.17l-7.92 15.72 -7.56 -15.72c-1.27,-0.05 -3.43,-0.31 -4.32,0.2 0.71,2.56 4.09,8.53 5.47,11.37 0.97,1.99 1.83,3.77 2.79,5.76 0.72,1.47 1.86,4.93 3.66,5.02 2.16,0.1 3.07,-3.35 3.81,-4.86 1.71,-3.51 7.88,-15.47 8.36,-17.32z"/>
   <path class="fil2" d="M59.53 229.01c0.75,1.08 0.35,5.94 0.35,7.23l3.93 -0.23 -0.01 -7c2.77,0 4.09,-0.09 6.04,-1.39 1.24,-0.82 2.75,-2.39 2.79,-4.62 0.18,-2.91 0.14,-5.79 0.14,-8.74l-3.75 0c0,1.64 0.42,7.06 -0.34,8.27 -0.52,2.92 -4.06,2.42 -7.1,2.42 -3.25,0 -6.27,0.52 -6.82,-2.75 -0.72,-1.31 -0.25,-5.97 -0.25,-7.86l-3.83 0c-0.54,8.54 -0.48,14.71 8.85,14.67z"/>
   <path class="fil2" d="M245.39 218.43l0.02 17.92 3.9 -0.01 0.11 -18.21 8.76 -0.02 0.11 -3.72 -21.65 -0.13 0 3.71c1.52,0 3.03,0 4.55,0 1.96,0 3.52,-0.31 4.2,0.46z"/>
   <path class="fil2" d="M208.67 232.62c-3.16,-0.85 -12.31,0.1 -16.38,-0.28 -0.61,-1.7 -0.23,-15.2 -0.23,-18.14l-3.87 0.12c0.47,24.92 -3.23,22.03 9.67,22.03 3.43,0 7.3,0.16 10.68,-0.04l0.13 -3.69z"/>
   <path class="fil2" d="M197 268.12l1.25 0c0.82,-2.32 3.7,-11.85 4.72,-13.16l4.49 13.16 1.78 -0.01 5.26 -15.69c-2.27,-0.04 -1.91,0.76 -3.67,6.14 -0.76,2.32 -1.63,5.06 -2.51,7.19 -0.71,-1.25 -1.8,-5 -2.33,-6.62 -0.4,-1.2 -0.75,-2.21 -1.16,-3.41 -0.61,-1.78 -0.82,-3.59 -2.13,-3.34 -0.94,0.18 -0.97,1.26 -1.61,3.01 -0.4,1.12 -0.75,2.17 -1.17,3.39 -0.73,2.12 -1.84,4.84 -2.3,6.87 -0.84,-0.98 -3.61,-10.06 -4.23,-11.9 -0.46,-1.39 -0.3,-1.38 -2.09,-1.35 0.46,2.33 1.84,5.64 2.6,7.97 0.45,1.41 0.92,2.72 1.36,4.06 0.63,1.89 0.77,3.28 1.74,3.69z"/>
   <polygon class="fil2" points="261.4,236.18 265.12,236.18 265.12,214.28 261.4,214.28 "/>
   <path class="fil2" d="M74.65 253.84c5.22,-0.16 10.14,-0.08 11.31,4.71 1.32,5.43 -2.71,8.14 -7.55,8.14l-2.57 0 -1.18 -0.02 -0.01 -12.83zm-1.63 14.23c3.15,0.2 7.88,0.42 10.49,-0.84 2.45,-1.19 4.34,-3.44 4.29,-7.11 -0.1,-7.67 -7.59,-8.18 -14.81,-7.69l0.03 15.64z"/>
   <path class="fil2" d="M234.75 257.82c5.93,-1.57 7.45,7.48 2.37,8.8 -3,0.78 -5.02,-0.91 -5.52,-3.17 -0.66,-3 0.71,-4.99 3.15,-5.63zm-3.28 8.3c1.56,1.48 3.64,3.02 7.01,1.55 4.62,-2.01 4.5,-9.53 -0.56,-11.12 -3.06,-0.96 -4.73,0.21 -6.43,1.76l-0.03 -6.8 -1.6 0.06 0.02 16.49c1.91,0.11 1.42,-0.03 1.59,-1.94z"/>
   <path class="fil2" d="M91.72 261.51c0.19,-5.23 8.01,-5.16 8.13,0l-8.13 0zm9.73 1.16c0.17,-4.23 -2.88,-7.38 -7.32,-6.21 -3.54,0.92 -5.46,5.71 -3.06,9.23 2.94,4.3 10.3,2 9.38,0.25 -0.6,-1.12 -1.38,0.12 -2.32,0.51 -2.3,0.97 -6.2,0.06 -6.43,-3.76l9.75 -0.02z"/>
   <path class="fil2" d="M216.78 261.45c0.45,-5.19 8.01,-5.13 8.19,0.07l-8.19 -0.07zm9.79 1.18c0.08,-4.19 -2.99,-7.53 -7.51,-6.1 -3.37,1.07 -5.4,5.79 -2.77,9.39 3.06,4.17 10.7,1.49 9.22,-0.11 -0.9,-0.97 -0.57,0.02 -2.45,0.69 -2.52,0.9 -5.94,-0.13 -6.29,-3.79l9.8 -0.08z"/>
   <path class="fil2" d="M123.04 262.77c0.04,2.06 -0.25,3.04 -1.74,3.76 -1.21,0.58 -3.28,0.64 -4.28,-0.27 -2.13,-1.93 0.01,-4.61 6.02,-3.49zm-0.2 -2.93c0.46,0.73 0.39,0.55 0.21,1.65l-4.9 0.15c-3.44,0.17 -4.51,3.62 -2.34,5.55 2.12,1.88 5.95,0.99 7.16,-0.7 0.57,1.64 -0.7,1.57 1.33,1.62 0.51,-0.73 0.34,-1.95 0.33,-2.85 -0.02,-2.49 0.34,-6.01 -1.01,-7.59 -1.77,-2.08 -6.67,-1.76 -8.51,0.23l0.66 0.99c1.92,-0.88 6.63,-2.74 7.07,0.95z"/>
   <path class="fil2" d="M176.34 257.84c5.83,-1.75 7.52,7.2 2.59,8.73 -2.85,0.88 -5.24,-0.86 -5.72,-3.18 -0.64,-3.11 0.9,-4.88 3.13,-5.55zm-0.96 -1.21c-7.3,2.53 -3.53,14.01 4.25,11.2 6.91,-2.49 3.79,-13.99 -4.25,-11.2z"/>
   <path class="fil2" d="M155.35 264.11c-2.1,5.38 -10.66,2.06 -7.98,-4.02 2.11,-4.77 10.36,-2.06 7.98,4.02zm-6.15 -7.45c-7.48,2.79 -3.22,14.09 4.43,11.13 6.77,-2.63 3.45,-14.06 -4.43,-11.13z"/>
   <path class="fil2" d="M182.42 226.82l-0.01 -3.17c-1.9,-0.58 -10.06,-0.23 -12.63,-0.23l0 3.64c2.61,0 10.69,0.39 12.64,-0.24z"/>
   <polygon class="fil2" points="313.05,226.94 313.04,223.53 300.49,223.39 300.49,227.09 "/>
   <path class="fil2" d="M103.25 266.68c1.34,1.46 5.16,2.09 7.52,1.01 2.52,-1.15 2.93,-4.52 -0.14,-5.58 -1.56,-0.54 -7.21,-0.86 -5.09,-3.63 0.63,-0.83 2.5,-1.02 3.82,-0.79 2.7,0.48 1.66,1.7 2.96,-0.03 -0.42,-0.74 -0.41,-0.75 -1.58,-1.08 -0.63,-0.18 -1.26,-0.28 -1.89,-0.32 -1.38,-0.09 -2.59,0.08 -3.71,0.67 -2.18,1.14 -2.21,4.38 0.41,5.41 1.6,0.63 7.06,0.74 5.37,3.47 -1.36,2.19 -5.56,0.43 -7.1,-0.2l-0.57 1.07z"/>
   <path class="fil3" d="M166.62 268.05l1.56 0.04c0.09,-2.54 0.32,-14.98 -0.14,-16.64l-1.42 0.05 0 16.55z"/>
   <polygon class="fil3" points="160.59,268.09 162.17,268.05 162.17,251.55 161.65,251.45 161.08,251.45 160.57,251.55 "/>
   <path class="fil2" d="M138.08 268.13l1.28 -0.04c0.06,-2.02 -0.23,-6.07 0.29,-7.72 0.34,-1.11 0.96,-1.82 1.81,-2.19 2.13,-0.92 2.24,0.55 2.28,-1.93 -2.03,0.08 -3.42,0.65 -4.02,1.84 -0.43,0.44 0.58,0.42 -0.54,0.36l-0.01 -1.91 -1.21 0 0.12 11.59z"/>
   <path class="fil2" d="M129.28 268.12l1.26 -0.05c0.12,-3.59 -0.82,-8.56 2.08,-9.89 2.13,-0.97 2.26,0.61 2.3,-1.93 -2.13,0.09 -3.29,0.56 -4.03,1.82 -0.45,0.47 0.61,0.49 -0.55,0.37l-0.01 -1.86 -1.19 0 0.14 11.54z"/>
   <path class="fil4" d="M0.34 223.35l-0.34 0 0 13.02 4.11 0.06 0.11 -5.5 13.94 0.01 0.04 5.45 4.14 0.03 0.09 -19.63c-0.06,-1.06 0.07,-0.53 -0.28,-1.06l-0.07 20.44 -3.63 0.01 -0.07 -5.25c-1.38,-0.69 -12.55,-0.59 -14.45,-0.13l-0.04 5.38 -3.67 0c0,-4.27 -0.04,-8.6 0.12,-12.83z"/>
   <path class="fil5" d="M94.29 229.33l0.7 0.51 0.04 -15.58 3.69 0 -0.12 21.03 0.46 -0.8c-0.05,-3.61 0.4,-18.06 -0.23,-20.42l-4 -0.06c-0.35,2.23 0.04,13.8 -0.09,14.49 -0.14,0.8 0.03,0.42 -0.45,0.83z"/>
   <path class="fil6" d="M298.72 218.28c2.9,-0.05 14.33,0.35 16.16,-0.2l0.06 -3.95c-2,-0.55 -15.09,-0.17 -18.16,-0.17 -1.33,0.16 -0.44,0.06 -0.78,0.37l18.67 -0.09 0 3.75c-1.24,0 -14.79,-0.39 -15.95,0.29z"/>
   <path class="fil5" d="M42.99 236.12l-16.32 0.08 0.13 -3.76 15.12 0.04 0.79 -0.35c-2.85,0.1 -14.65,-0.36 -16.29,0.25l-0.05 3.89c1.44,0.49 16.01,0.37 16.62,-0.15z"/>
   <path class="fil5" d="M245.39 218.43c-0.68,-0.77 -2.24,-0.46 -4.2,-0.46 -1.52,0 -3.03,0 -4.55,0l0 -3.71 21.65 0.13c-0.36,-0.61 0.2,-0.27 -0.84,-0.43 -2.11,-0.33 -20.76,0.1 -20.96,0.14l-0.12 4.01 9.02 0.32z"/>
   <path class="fil5" d="M299.4 236.13l0.79 0.39c2.61,-0.04 12.97,0.27 14.67,-0.22l0.08 -3.95c-2.16,-0.64 -12.06,-0.04 -15.23,-0.24 0.36,0.29 -0.56,0.22 0.78,0.33l14.16 0 0 3.76 -15.25 -0.07z"/>
   <path class="fil4" d="M261.4 214.28l3.72 0 0 21.9 -3.72 0 0 -21.9zm-0.27 22.08l4.16 0.08 0.11 -22.34 -4.13 -0.1 -0.14 22.36z"/>
   <path class="fil7" d="M208.67 232.62c-0.73,-0.81 -1.73,-0.51 -3.69,-0.51l-12.65 0 -0.01 -17.96 -3.31 -0.23c-1.24,0.2 -0.4,-0.05 -0.82,0.4l3.87 -0.12c0,2.94 -0.38,16.44 0.23,18.14 4.07,0.38 13.22,-0.57 16.38,0.28z"/>
   <path class="fil8" d="M313.05 226.94l-12.56 0.15 0 -3.7 12.55 0.14c-0.35,-0.62 0.17,-0.37 -1.12,-0.48 -0.37,-0.03 -1.3,0.03 -1.74,0.03l-9.86 0.1 -0.1 4.08c0.38,0.05 11.31,0.33 12.23,0.07 0.75,-0.22 0.15,0.09 0.6,-0.39z"/>
   <path class="fil9" d="M80.68 236.14l-3.97 0.15 0.1 -21.05c-0.33,0.27 -0.2,-0.47 -0.37,0.71l0.01 20.38 3.39 0.27c1.41,-0.27 0.39,0.07 0.84,-0.46z"/>
   <path class="fil10" d="M233.49 236.12l-3.98 0.18 -0.02 -5.44 -13.4 -0.11c-1.1,0.17 -0.49,0.03 -0.89,0.39l14.04 -0.11 0.03 5.3c1.04,0.45 1.13,0.32 2.23,0.32 2.56,0.02 1.7,-0.15 1.99,-0.53z"/>
   <path class="fil11" d="M182.42 226.82c-1.95,0.63 -10.03,0.24 -12.64,0.24l0 -3.64c2.57,0 10.73,-0.35 12.63,0.23 -0.28,-0.75 0.33,-0.44 -1.07,-0.59l-11.64 0.08 -0.12 4.16 11.48 0.08c1.7,-0.06 0.95,0.05 1.36,-0.56z"/>
   <path class="fil5" d="M68.68 222.53c0.76,-1.21 0.34,-6.63 0.34,-8.27l3.75 0c0,2.95 0.04,5.83 -0.14,8.74 0.72,-0.53 0.55,-7.71 0.25,-8.94l-4.03 -0.06 -0.17 8.53z"/>
   <path class="fil8" d="M129.28 268.12l-0.14 -11.54 1.19 0 0.01 1.86c1.16,0.12 0.1,0.1 0.55,-0.37l-0.46 -1.82 -1.41 0.04c-0.37,1.45 -0.14,7 -0.16,9.25 -0.02,2.18 -0.26,2.15 0.42,2.58z"/>
   <path class="fil7" d="M229.26 226.89c0.14,-0.25 0.18,0.35 0.33,-0.94l-0.22 -7.87c-1.43,-0.16 -7.59,-0.42 -8.28,0.3l8.21 -0.1 -0.04 8.61z"/>
   <path class="fil12" d="M138.08 268.13l-0.12 -11.59 1.21 0 0.01 1.91c1.12,0.06 0.11,0.08 0.54,-0.36 -0.47,-0.75 -0.18,-0.78 -0.46,-1.81l-1.41 -0.03 -0.13 11.27c0.19,0.71 -0.05,0.19 0.36,0.61z"/>
   <path class="fil8" d="M54.76 222.2l-0.02 -8.12c-1.19,-0.1 -3.13,-0.34 -4.06,0.26l3.83 0c0,1.89 -0.47,6.55 0.25,7.86z"/>
   <path class="fil6" d="M63.81 236.01l-3.93 0.23c0,-1.29 0.4,-6.15 -0.35,-7.23l0.09 7.33 3.4 0.17c0.8,-0.17 0.4,0.04 0.79,-0.5z"/>
   <path class="fil13" d="M118.15 261.64l4.9 -0.15c0.18,-1.1 0.25,-0.92 -0.21,-1.65l0.07 1.42c-1.31,0 -3.91,-0.37 -4.76,0.38z"/>
   <path class="fil7" d="M268.05 214.45c0.89,-0.51 3.05,-0.25 4.32,-0.2 -1,-0.58 -3.4,-0.4 -4.58,-0.21l0.26 0.41z"/>
   <path class="fil7" d="M292.14 214.42l0.32 -0.34c-0.9,-0.18 -1.37,-0.15 -2.23,-0.16 -1.08,0 -1.56,-0.15 -2.38,0.33 1.25,-0.05 3.37,-0.31 4.29,0.17z"/>
  </g>
 </g>
</svg>
